<?xml version="1.0" encoding="UTF-8" standalone="no"?>
<!DOCTYPE svg PUBLIC "-//W3C//DTD SVG 1.1//EN"
 "http://www.w3.org/Graphics/SVG/1.1/DTD/svg11.dtd">
<!-- Generated by graphviz version 2.41.20190111.1241 (20190111.1241)
 -->
<!-- Title: G Pages: 1 -->
<svg width="2408px" height="427px"
 viewBox="0.00 0.00 2407.50 427.00" xmlns="http://www.w3.org/2000/svg" xmlns:xlink="http://www.w3.org/1999/xlink">
<g id="graph0" class="graph" transform="scale(1 1) rotate(0) translate(4 423)">
<title>G</title>
<polygon fill="white" stroke="transparent" points="-4,4 -4,-423 2403.5,-423 2403.5,4 -4,4"/>
<text text-anchor="middle" x="1199.75" y="-7.8" font-family="Times New Roman,serif" font-size="14.00" fill="white">agraph</text>
<!-- страна -->
<g id="страна" class="node">
<title>страна</title>
<polygon fill="none" stroke="black" points="732.5,-419 673.5,-419 673.5,-383 732.5,-383 732.5,-419"/>
<text text-anchor="middle" x="703" y="-397.3" font-family="Times New Roman,serif" font-size="14.00">Страна</text>
</g>
<!-- точная_страна -->
<g id="точная_страна" class="node">
<title>точная_страна</title>
<polygon fill="none" stroke="black" points="755,-347 651,-347 651,-311 755,-311 755,-347"/>
<text text-anchor="middle" x="703" y="-325.3" font-family="Times New Roman,serif" font-size="14.00">Точная страна</text>
</g>
<!-- страна&#45;&#45;точная_страна -->
<g id="edge1" class="edge">
<title>страна&#45;&#45;точная_страна</title>
<path fill="none" stroke="black" d="M703,-382.83C703,-372 703,-358.29 703,-347.41"/>
</g>
<!-- insurance_сроки_страховки -->
<g id="insurance_сроки_страховки" class="node">
<title>insurance_сроки_страховки</title>
<polygon fill="none" stroke="black" points="927.5,-419 806.5,-419 806.5,-383 927.5,-383 927.5,-419"/>
<text text-anchor="middle" x="867" y="-397.3" font-family="Times New Roman,serif" font-size="14.00">Сроки страховки</text>
</g>
<!-- insurance_пакеты -->
<g id="insurance_пакеты" class="node">
<title>insurance_пакеты</title>
<polygon fill="none" stroke="black" points="1182,-419 1056,-419 1056,-383 1182,-383 1182,-419"/>
<text text-anchor="middle" x="1119" y="-397.3" font-family="Times New Roman,serif" font-size="14.00">Пакеты страховки</text>
</g>
<!-- sb_1_partners_services -->
<g id="sb_1_partners_services" class="node">
<title>sb_1_partners_services</title>
<polygon fill="none" stroke="black" points="911,-347 773,-347 773,-311 911,-311 911,-347"/>
<text text-anchor="middle" x="842" y="-325.3" font-family="Times New Roman,serif" font-size="14.00">Партнерские услуги</text>
</g>
<!-- sb_1_medic_services -->
<g id="sb_1_medic_services" class="node">
<title>sb_1_medic_services</title>
<polygon fill="none" stroke="black" points="368.5,-275 225.5,-275 225.5,-239 368.5,-239 368.5,-275"/>
<text text-anchor="middle" x="297" y="-253.3" font-family="Times New Roman,serif" font-size="14.00">Медицинские услуги</text>
</g>
<!-- sb_1_partners_services&#45;&#45;sb_1_medic_services -->
<g id="edge2" class="edge">
<title>sb_1_partners_services&#45;&#45;sb_1_medic_services</title>
<path fill="none" stroke="black" d="M797,-310.94C797,-299.56 797,-287 797,-287 797,-287 273.17,-287 273.17,-287 273.17,-287 273.17,-281.46 273.17,-275.14"/>
</g>
<!-- sb_1_priority_pass -->
<g id="sb_1_priority_pass" class="node">
<title>sb_1_priority_pass</title>
<polygon fill="none" stroke="black" points="681,-275 593,-275 593,-239 681,-239 681,-275"/>
<text text-anchor="middle" x="637" y="-253.3" font-family="Times New Roman,serif" font-size="14.00">Priority Pass</text>
</g>
<!-- sb_1_partners_services&#45;&#45;sb_1_priority_pass -->
<g id="edge4" class="edge">
<title>sb_1_partners_services&#45;&#45;sb_1_priority_pass</title>
<path fill="none" stroke="black" d="M772.89,-335C769.22,-335 767,-335 767,-335 767,-335 767,-251 767,-251 767,-251 718.73,-251 681.01,-251"/>
</g>
<!-- sb1_theme_choice -->
<g id="sb1_theme_choice" class="node">
<title>sb1_theme_choice</title>
<polygon fill="none" stroke="black" points="905,-275 779,-275 779,-239 905,-239 905,-275"/>
<text text-anchor="middle" x="842" y="-253.3" font-family="Times New Roman,serif" font-size="14.00">Сбербанк Первый</text>
</g>
<!-- sb_1_partners_services&#45;&#45;sb1_theme_choice -->
<g id="edge3" class="edge">
<title>sb_1_partners_services&#45;&#45;sb1_theme_choice</title>
<path fill="none" stroke="black" d="M851,-310.83C851,-300 851,-286.29 851,-275.41"/>
</g>
<!-- sb_1_partners_services&#45;&#45;sb1_theme_choice -->
<g id="edge5" class="edge">
<title>sb_1_partners_services&#45;&#45;sb1_theme_choice</title>
<path fill="none" stroke="black" d="M869,-310.83C869,-300 869,-286.29 869,-275.41"/>
</g>
<!-- sb_1_partners_services&#45;&#45;sb1_theme_choice -->
<g id="edge6" class="edge">
<title>sb_1_partners_services&#45;&#45;sb1_theme_choice</title>
<path fill="none" stroke="black" d="M887,-310.83C887,-300 887,-286.29 887,-275.41"/>
</g>
<!-- sb_1_medic_services&#45;&#45;sb_1_partners_services -->
<g id="edge10" class="edge">
<title>sb_1_medic_services&#45;&#45;sb_1_partners_services</title>
<path fill="none" stroke="black" d="M320.83,-275.06C320.83,-286.44 320.83,-299 320.83,-299 320.83,-299 815,-299 815,-299 815,-299 815,-304.54 815,-310.86"/>
</g>
<!-- sb_1card_medic_services_tvmed -->
<g id="sb_1card_medic_services_tvmed" class="node">
<title>sb_1card_medic_services_tvmed</title>
<polygon fill="none" stroke="black" points="98,-203 0,-203 0,-167 98,-167 98,-203"/>
<text text-anchor="middle" x="49" y="-181.3" font-family="Times New Roman,serif" font-size="14.00">TV&#45;медицина</text>
</g>
<!-- sb_1_medic_services&#45;&#45;sb_1card_medic_services_tvmed -->
<g id="edge7" class="edge">
<title>sb_1_medic_services&#45;&#45;sb_1card_medic_services_tvmed</title>
<path fill="none" stroke="black" d="M225.29,-251C157.25,-251 65.33,-251 65.33,-251 65.33,-251 65.33,-222.58 65.33,-203.03"/>
</g>
<!-- sb_1card_medic_expert_opinion -->
<g id="sb_1card_medic_expert_opinion" class="node">
<title>sb_1card_medic_expert_opinion</title>
<polygon fill="none" stroke="black" points="295.5,-203 116.5,-203 116.5,-167 295.5,-167 295.5,-203"/>
<text text-anchor="middle" x="206" y="-181.3" font-family="Times New Roman,serif" font-size="14.00">Второе экспертное мнение</text>
</g>
<!-- sb_1_medic_services&#45;&#45;sb_1card_medic_expert_opinion -->
<g id="edge8" class="edge">
<title>sb_1_medic_services&#45;&#45;sb_1card_medic_expert_opinion</title>
<path fill="none" stroke="black" d="M272.17,-238.83C272.17,-228 272.17,-214.29 272.17,-203.41"/>
</g>
<!-- sb_1_medic_dangerous_desease -->
<g id="sb_1_medic_dangerous_desease" class="node">
<title>sb_1_medic_dangerous_desease</title>
<polygon fill="none" stroke="black" points="462.5,-203 313.5,-203 313.5,-167 462.5,-167 462.5,-203"/>
<text text-anchor="middle" x="388" y="-181.3" font-family="Times New Roman,serif" font-size="14.00">Опасные заболевания</text>
</g>
<!-- sb_1_medic_services&#45;&#45;sb_1_medic_dangerous_desease -->
<g id="edge9" class="edge">
<title>sb_1_medic_services&#45;&#45;sb_1_medic_dangerous_desease</title>
<path fill="none" stroke="black" d="M331.83,-238.83C331.83,-228 331.83,-214.29 331.83,-203.41"/>
</g>
<!-- sb_1card_medic_services_tvmed&#45;&#45;sb_1_medic_services -->
<g id="edge11" class="edge">
<title>sb_1card_medic_services_tvmed&#45;&#45;sb_1_medic_services</title>
<path fill="none" stroke="black" d="M32.67,-203.09C32.67,-226.13 32.67,-263 32.67,-263 32.67,-263 147.18,-263 225.47,-263"/>
</g>
<!-- sb_1card_medic_expert_opinion&#45;&#45;sb_1_medic_services -->
<g id="edge12" class="edge">
<title>sb_1card_medic_expert_opinion&#45;&#45;sb_1_medic_services</title>
<path fill="none" stroke="black" d="M248.83,-203.17C248.83,-214 248.83,-227.71 248.83,-238.59"/>
</g>
<!-- sb_1_medic_dangerous_desease&#45;&#45;sb_1_medic_services -->
<g id="edge13" class="edge">
<title>sb_1_medic_dangerous_desease&#45;&#45;sb_1_medic_services</title>
<path fill="none" stroke="black" d="M350.17,-203.17C350.17,-214 350.17,-227.71 350.17,-238.59"/>
</g>
<!-- sb_1_priority_pass&#45;&#45;sb_1_partners_services -->
<g id="edge17" class="edge">
<title>sb_1_priority_pass&#45;&#45;sb_1_partners_services</title>
<path fill="none" stroke="black" d="M681.07,-263C716.71,-263 761,-263 761,-263 761,-263 761,-323 761,-323 761,-323 765.75,-323 772.95,-323"/>
</g>
<!-- priority_pass_cards -->
<g id="priority_pass_cards" class="node">
<title>priority_pass_cards</title>
<polygon fill="none" stroke="black" points="537,-203 481,-203 481,-167 537,-167 537,-203"/>
<text text-anchor="middle" x="509" y="-181.3" font-family="Times New Roman,serif" font-size="14.00">Карты</text>
</g>
<!-- sb_1_priority_pass&#45;&#45;priority_pass_cards -->
<g id="edge14" class="edge">
<title>sb_1_priority_pass&#45;&#45;priority_pass_cards</title>
<path fill="none" stroke="black" d="M592.79,-263C552.64,-263 499.67,-263 499.67,-263 499.67,-263 499.67,-226.13 499.67,-203.09"/>
</g>
<!-- priority_pass_cond -->
<g id="priority_pass_cond" class="node">
<title>priority_pass_cond</title>
<polygon fill="none" stroke="black" points="623,-203 555,-203 555,-167 623,-167 623,-203"/>
<text text-anchor="middle" x="589" y="-181.3" font-family="Times New Roman,serif" font-size="14.00">Условия</text>
</g>
<!-- sb_1_priority_pass&#45;&#45;priority_pass_cond -->
<g id="edge15" class="edge">
<title>sb_1_priority_pass&#45;&#45;priority_pass_cond</title>
<path fill="none" stroke="black" d="M613,-238.83C613,-228 613,-214.29 613,-203.41"/>
</g>
<!-- priority_pass_manage -->
<g id="priority_pass_manage" class="node">
<title>priority_pass_manage</title>
<polygon fill="none" stroke="black" points="729,-203 641,-203 641,-167 729,-167 729,-203"/>
<text text-anchor="middle" x="685" y="-181.3" font-family="Times New Roman,serif" font-size="14.00">Управление</text>
</g>
<!-- sb_1_priority_pass&#45;&#45;priority_pass_manage -->
<g id="edge16" class="edge">
<title>sb_1_priority_pass&#45;&#45;priority_pass_manage</title>
<path fill="none" stroke="black" d="M654.33,-238.83C654.33,-228 654.33,-214.29 654.33,-203.41"/>
</g>
<!-- priority_pass_cards&#45;&#45;sb_1_priority_pass -->
<g id="edge18" class="edge">
<title>priority_pass_cards&#45;&#45;sb_1_priority_pass</title>
<path fill="none" stroke="black" d="M518.33,-203.03C518.33,-222.58 518.33,-251 518.33,-251 518.33,-251 559.07,-251 592.81,-251"/>
</g>
<!-- priority_pass_cond&#45;&#45;sb_1_priority_pass -->
<g id="edge19" class="edge">
<title>priority_pass_cond&#45;&#45;sb_1_priority_pass</title>
<path fill="none" stroke="black" d="M603,-203.17C603,-214 603,-227.71 603,-238.59"/>
</g>
<!-- priority_pass_manage&#45;&#45;sb_1_priority_pass -->
<g id="edge20" class="edge">
<title>priority_pass_manage&#45;&#45;sb_1_priority_pass</title>
<path fill="none" stroke="black" d="M667.67,-203.17C667.67,-214 667.67,-227.71 667.67,-238.59"/>
</g>
<!-- sb1_theme_choice&#45;&#45;sb_1_partners_services -->
<g id="edge28" class="edge">
<title>sb1_theme_choice&#45;&#45;sb_1_partners_services</title>
<path fill="none" stroke="black" d="M833,-275.17C833,-286 833,-299.71 833,-310.59"/>
</g>
<!-- sb_1card_credit_bp -->
<g id="sb_1card_credit_bp" class="node">
<title>sb_1card_credit_bp</title>
<polygon fill="none" stroke="black" points="905,-203 747,-203 747,-167 905,-167 905,-203"/>
<text text-anchor="middle" x="826" y="-181.3" font-family="Times New Roman,serif" font-size="14.00">Кредит без поручителя</text>
</g>
<!-- sb1_theme_choice&#45;&#45;sb_1card_credit_bp -->
<g id="edge21" class="edge">
<title>sb1_theme_choice&#45;&#45;sb_1card_credit_bp</title>
<path fill="none" stroke="black" d="M791.6,-238.83C791.6,-228 791.6,-214.29 791.6,-203.41"/>
</g>
<!-- sb_1card_credit_sp -->
<g id="sb_1card_credit_sp" class="node">
<title>sb_1card_credit_sp</title>
<polygon fill="none" stroke="black" points="1076.5,-203 923.5,-203 923.5,-167 1076.5,-167 1076.5,-203"/>
<text text-anchor="middle" x="1000" y="-181.3" font-family="Times New Roman,serif" font-size="14.00">Кредит с поручителем</text>
</g>
<!-- sb1_theme_choice&#45;&#45;sb_1card_credit_sp -->
<g id="edge22" class="edge">
<title>sb1_theme_choice&#45;&#45;sb_1card_credit_sp</title>
<path fill="none" stroke="black" d="M905.15,-263C913.55,-263 919.33,-263 919.33,-263 919.33,-263 919.33,-179 919.33,-179 919.33,-179 920.76,-179 923.22,-179"/>
</g>
<!-- sb_1card_vklad -->
<g id="sb_1card_vklad" class="node">
<title>sb_1card_vklad</title>
<polygon fill="none" stroke="black" points="1157,-203 1095,-203 1095,-167 1157,-167 1157,-203"/>
<text text-anchor="middle" x="1126" y="-181.3" font-family="Times New Roman,serif" font-size="14.00">Вклады</text>
</g>
<!-- sb1_theme_choice&#45;&#45;sb_1card_vklad -->
<g id="edge24" class="edge">
<title>sb1_theme_choice&#45;&#45;sb_1card_vklad</title>
<path fill="none" stroke="black" d="M816.8,-238.95C816.8,-224.63 816.8,-207 816.8,-207 816.8,-207 1126,-207 1126,-207 1126,-207 1126,-205.45 1126,-203.17"/>
</g>
<!-- sb_1_obligations -->
<g id="sb_1_obligations" class="node">
<title>sb_1_obligations</title>
<polygon fill="none" stroke="black" points="1237.5,-131 1154.5,-131 1154.5,-95 1237.5,-95 1237.5,-131"/>
<text text-anchor="middle" x="1196" y="-109.3" font-family="Times New Roman,serif" font-size="14.00">Облигации</text>
</g>
<!-- sb1_theme_choice&#45;&#45;sb_1_obligations -->
<g id="edge26" class="edge">
<title>sb1_theme_choice&#45;&#45;sb_1_obligations</title>
<path fill="none" stroke="black" d="M829.4,-238.96C829.4,-226.44 829.4,-212 829.4,-212 829.4,-212 1179.25,-212 1179.25,-212 1179.25,-212 1179.25,-159.74 1179.25,-131.16"/>
</g>
<!-- unknown -->
<g id="node36" class="node">
<title>unknown</title>
<polygon fill="none" stroke="black" points="1336,-59 1268,-59 1268,-23 1336,-23 1336,-59"/>
<text text-anchor="middle" x="1302" y="-37.3" font-family="Times New Roman,serif" font-size="14.00">unknown</text>
</g>
<!-- sb1_theme_choice&#45;&#45;unknown -->
<g id="edge23" class="edge">
<title>sb1_theme_choice&#45;&#45;unknown</title>
<path fill="none" stroke="black" d="M879.8,-238.84C879.8,-233.96 879.8,-230 879.8,-230 879.8,-230 1316.57,-230 1316.57,-230 1316.57,-230 1316.57,-106.43 1316.57,-59.12"/>
</g>
<!-- sb1_theme_choice&#45;&#45;unknown -->
<g id="edge25" class="edge">
<title>sb1_theme_choice&#45;&#45;unknown</title>
<path fill="none" stroke="black" d="M892.4,-238.88C892.4,-236.03 892.4,-234 892.4,-234 892.4,-234 1326.29,-234 1326.29,-234 1326.29,-234 1326.29,-107.2 1326.29,-59.16"/>
</g>
<!-- sb1_theme_choice&#45;&#45;unknown -->
<g id="edge27" class="edge">
<title>sb1_theme_choice&#45;&#45;unknown</title>
<path fill="none" stroke="black" d="M867.2,-238.76C867.2,-231.57 867.2,-225 867.2,-225 867.2,-225 1306.86,-225 1306.86,-225 1306.86,-225 1306.86,-105.86 1306.86,-59.32"/>
</g>
<!-- sb1_theme_choice&#45;&#45;unknown -->
<g id="edge29" class="edge">
<title>sb1_theme_choice&#45;&#45;unknown</title>
<path fill="none" stroke="black" d="M842,-238.9C842,-227.91 842,-216 842,-216 842,-216 1287.43,-216 1287.43,-216 1287.43,-216 1287.43,-103.78 1287.43,-59.07"/>
</g>
<!-- sb1_theme_choice&#45;&#45;unknown -->
<g id="edge30" class="edge">
<title>sb1_theme_choice&#45;&#45;unknown</title>
<path fill="none" stroke="black" d="M854.6,-238.58C854.6,-229.72 854.6,-221 854.6,-221 854.6,-221 1297.14,-221 1297.14,-221 1297.14,-221 1297.14,-105.01 1297.14,-59.25"/>
</g>
<!-- sb_1card_credit_bp&#45;&#45;sb1_theme_choice -->
<g id="edge31" class="edge">
<title>sb_1card_credit_bp&#45;&#45;sb1_theme_choice</title>
<path fill="none" stroke="black" d="M804.2,-203.17C804.2,-214 804.2,-227.71 804.2,-238.59"/>
</g>
<!-- sb_1card_credit_sp&#45;&#45;sb1_theme_choice -->
<g id="edge32" class="edge">
<title>sb_1card_credit_sp&#45;&#45;sb1_theme_choice</title>
<path fill="none" stroke="black" d="M923.3,-191C918.27,-191 915.17,-191 915.17,-191 915.17,-191 915.17,-251 915.17,-251 915.17,-251 911.28,-251 905.3,-251"/>
</g>
<!-- sb_1card_vklad_lsohranyai -->
<g id="sb_1card_vklad_lsohranyai" class="node">
<title>sb_1card_vklad_lsohranyai</title>
<polygon fill="none" stroke="black" points="825,-131 707,-131 707,-95 825,-95 825,-131"/>
<text text-anchor="middle" x="766" y="-109.3" font-family="Times New Roman,serif" font-size="14.00">Лидер Сохраняй</text>
</g>
<!-- sb_1card_vklad&#45;&#45;sb_1card_vklad_lsohranyai -->
<g id="edge33" class="edge">
<title>sb_1card_vklad&#45;&#45;sb_1card_vklad_lsohranyai</title>
<path fill="none" stroke="black" d="M1111.75,-166.86C1111.75,-160.54 1111.75,-155 1111.75,-155 1111.75,-155 786,-155 786,-155 786,-155 786,-142.44 786,-131.06"/>
</g>
<!-- sb_1card_vklad_lpopolnyai -->
<g id="sb_1card_vklad_lpopolnyai" class="node">
<title>sb_1card_vklad_lpopolnyai</title>
<polygon fill="none" stroke="black" points="962.5,-131 843.5,-131 843.5,-95 962.5,-95 962.5,-131"/>
<text text-anchor="middle" x="903" y="-109.3" font-family="Times New Roman,serif" font-size="14.00">Лидер Пополняй</text>
</g>
<!-- sb_1card_vklad&#45;&#45;sb_1card_vklad_lpopolnyai -->
<g id="edge34" class="edge">
<title>sb_1card_vklad&#45;&#45;sb_1card_vklad_lpopolnyai</title>
<path fill="none" stroke="black" d="M1126,-166.94C1126,-155.56 1126,-143 1126,-143 1126,-143 943,-143 943,-143 943,-143 943,-137.46 943,-131.14"/>
</g>
<!-- sb_1card_vklad_luprvlyai -->
<g id="sb_1card_vklad_luprvlyai" class="node">
<title>sb_1card_vklad_luprvlyai</title>
<polygon fill="none" stroke="black" points="1097.5,-131 980.5,-131 980.5,-95 1097.5,-95 1097.5,-131"/>
<text text-anchor="middle" x="1039" y="-109.3" font-family="Times New Roman,serif" font-size="14.00">Лидер Управляй</text>
</g>
<!-- sb_1card_vklad&#45;&#45;sb_1card_vklad_luprvlyai -->
<g id="edge35" class="edge">
<title>sb_1card_vklad&#45;&#45;sb_1card_vklad_luprvlyai</title>
<path fill="none" stroke="black" d="M1094.68,-185C1089.49,-185 1085.75,-185 1085.75,-185 1085.75,-185 1085.75,-152.5 1085.75,-131.17"/>
</g>
<!-- sb_1card_vklad&#45;&#45;unknown -->
<g id="edge36" class="edge">
<title>sb_1card_vklad&#45;&#45;unknown</title>
<path fill="none" stroke="black" d="M1140.25,-166.93C1140.25,-130.35 1140.25,-51 1140.25,-51 1140.25,-51 1220.22,-51 1267.7,-51"/>
</g>
<!-- sb_1card_vklad_lsohranyai&#45;&#45;unknown -->
<g id="edge37" class="edge">
<title>sb_1card_vklad_lsohranyai&#45;&#45;unknown</title>
<path fill="none" stroke="black" d="M766,-94.99C766,-70.58 766,-30 766,-30 766,-30 1149.35,-30 1267.66,-30"/>
</g>
<!-- sb_1card_vklad_lpopolnyai&#45;&#45;unknown -->
<g id="edge38" class="edge">
<title>sb_1card_vklad_lpopolnyai&#45;&#45;unknown</title>
<path fill="none" stroke="black" d="M903,-94.99C903,-72.51 903,-37 903,-37 903,-37 1171.49,-37 1267.98,-37"/>
</g>
<!-- sb_1card_vklad_luprvlyai&#45;&#45;unknown -->
<g id="edge39" class="edge">
<title>sb_1card_vklad_luprvlyai&#45;&#45;unknown</title>
<path fill="none" stroke="black" d="M1039,-94.87C1039,-74.43 1039,-44 1039,-44 1039,-44 1196.73,-44 1267.89,-44"/>
</g>
<!-- sb_1_obligations&#45;&#45;unknown -->
<g id="edge40" class="edge">
<title>sb_1_obligations&#45;&#45;unknown</title>
<path fill="none" stroke="black" d="M1237.81,-113C1257.92,-113 1277.71,-113 1277.71,-113 1277.71,-113 1277.71,-80.5 1277.71,-59.17"/>
</g>
<!-- sbpr_theme_choice -->
<g id="sbpr_theme_choice" class="node">
<title>sbpr_theme_choice</title>
<polygon fill="none" stroke="black" points="1386.5,-419 1255.5,-419 1255.5,-383 1386.5,-383 1386.5,-419"/>
<text text-anchor="middle" x="1321" y="-397.3" font-family="Times New Roman,serif" font-size="14.00">Сбербанк Премьер</text>
</g>
<!-- sbpr_theme_choice&#45;&#45;sb_1_partners_services -->
<g id="edge45" class="edge">
<title>sbpr_theme_choice&#45;&#45;sb_1_partners_services</title>
<path fill="none" stroke="black" d="M1265.13,-382.84C1265.13,-377.96 1265.13,-374 1265.13,-374 1265.13,-374 858.75,-374 858.75,-374 858.75,-374 858.75,-359.56 858.75,-347.04"/>
</g>
<!-- sbpr_card_vklad -->
<g id="sbpr_card_vklad" class="node">
<title>sbpr_card_vklad</title>
<polygon fill="none" stroke="black" points="1221,-347 1159,-347 1159,-311 1221,-311 1221,-347"/>
<text text-anchor="middle" x="1190" y="-325.3" font-family="Times New Roman,serif" font-size="14.00">Вклады</text>
</g>
<!-- sbpr_theme_choice&#45;&#45;sbpr_card_vklad -->
<g id="edge41" class="edge">
<title>sbpr_theme_choice&#45;&#45;sbpr_card_vklad</title>
<path fill="none" stroke="black" d="M1274.75,-382.97C1274.75,-363.42 1274.75,-335 1274.75,-335 1274.75,-335 1245.26,-335 1221.08,-335"/>
</g>
<!-- sbpr_vault -->
<g id="sbpr_vault" class="node">
<title>sbpr_vault</title>
<polygon fill="none" stroke="black" points="1348,-347 1294,-347 1294,-311 1348,-311 1348,-347"/>
<text text-anchor="middle" x="1321" y="-325.3" font-family="Times New Roman,serif" font-size="14.00">Сейф</text>
</g>
<!-- sbpr_theme_choice&#45;&#45;sbpr_vault -->
<g id="edge43" class="edge">
<title>sbpr_theme_choice&#45;&#45;sbpr_vault</title>
<path fill="none" stroke="black" d="M1312,-382.83C1312,-372 1312,-358.29 1312,-347.41"/>
</g>
<!-- sbpr_theme_choice&#45;&#45;unknown -->
<g id="edge42" class="edge">
<title>sbpr_theme_choice&#45;&#45;unknown</title>
<path fill="none" stroke="black" d="M1378.8,-383C1378.8,-309.75 1378.8,-38 1378.8,-38 1378.8,-38 1356.81,-38 1336.36,-38"/>
</g>
<!-- sbpr_theme_choice&#45;&#45;unknown -->
<g id="edge44" class="edge">
<title>sbpr_theme_choice&#45;&#45;unknown</title>
<path fill="none" stroke="black" d="M1371.1,-382.75C1371.1,-309.8 1371.1,-43 1371.1,-43 1371.1,-43 1353.55,-43 1336.15,-43"/>
</g>
<!-- sbpr_theme_choice&#45;&#45;unknown -->
<g id="edge46" class="edge">
<title>sbpr_theme_choice&#45;&#45;unknown</title>
<path fill="none" stroke="black" d="M1363.4,-382.52C1363.4,-309.89 1363.4,-48 1363.4,-48 1363.4,-48 1350.35,-48 1336.29,-48"/>
</g>
<!-- sbpr_theme_choice&#45;&#45;unknown -->
<g id="edge47" class="edge">
<title>sbpr_theme_choice&#45;&#45;unknown</title>
<path fill="none" stroke="black" d="M1355.7,-382.78C1355.7,-311.18 1355.7,-53 1355.7,-53 1355.7,-53 1346.67,-53 1336.01,-53"/>
</g>
<!-- sbpr_card_vklad&#45;&#45;sbpr_theme_choice -->
<g id="edge51" class="edge">
<title>sbpr_card_vklad&#45;&#45;sbpr_theme_choice</title>
<path fill="none" stroke="black" d="M1221.16,-323C1248.65,-323 1284.38,-323 1284.38,-323 1284.38,-323 1284.38,-359.87 1284.38,-382.91"/>
</g>
<!-- sbpr_card_vklad_lsohranyai -->
<g id="sbpr_card_vklad_lsohranyai" class="node">
<title>sbpr_card_vklad_lsohranyai</title>
<polygon fill="none" stroke="black" points="1052.5,-275 923.5,-275 923.5,-239 1052.5,-239 1052.5,-275"/>
<text text-anchor="middle" x="988" y="-253.3" font-family="Times New Roman,serif" font-size="14.00">Особый Сохраняй</text>
</g>
<!-- sbpr_card_vklad&#45;&#45;sbpr_card_vklad_lsohranyai -->
<g id="edge48" class="edge">
<title>sbpr_card_vklad&#45;&#45;sbpr_card_vklad_lsohranyai</title>
<path fill="none" stroke="black" d="M1158.83,-335C1097.96,-335 969.17,-335 969.17,-335 969.17,-335 969.17,-298.13 969.17,-275.09"/>
</g>
<!-- sbpr_card_vklad_lpopolnyai -->
<g id="sbpr_card_vklad_lpopolnyai" class="node">
<title>sbpr_card_vklad_lpopolnyai</title>
<polygon fill="none" stroke="black" points="1201.5,-275 1070.5,-275 1070.5,-239 1201.5,-239 1201.5,-275"/>
<text text-anchor="middle" x="1136" y="-253.3" font-family="Times New Roman,serif" font-size="14.00">Особый Пополняй</text>
</g>
<!-- sbpr_card_vklad&#45;&#45;sbpr_card_vklad_lpopolnyai -->
<g id="edge49" class="edge">
<title>sbpr_card_vklad&#45;&#45;sbpr_card_vklad_lpopolnyai</title>
<path fill="none" stroke="black" d="M1173.17,-310.83C1173.17,-300 1173.17,-286.29 1173.17,-275.41"/>
</g>
<!-- sbpr_card_vklad_luprvlyai -->
<g id="sbpr_card_vklad_luprvlyai" class="node">
<title>sbpr_card_vklad_luprvlyai</title>
<polygon fill="none" stroke="black" points="1348,-275 1220,-275 1220,-239 1348,-239 1348,-275"/>
<text text-anchor="middle" x="1284" y="-253.3" font-family="Times New Roman,serif" font-size="14.00">Особый Управляй</text>
</g>
<!-- sbpr_card_vklad&#45;&#45;sbpr_card_vklad_luprvlyai -->
<g id="edge50" class="edge">
<title>sbpr_card_vklad&#45;&#45;sbpr_card_vklad_luprvlyai</title>
<path fill="none" stroke="black" d="M1207.67,-310.91C1207.67,-287.87 1207.67,-251 1207.67,-251 1207.67,-251 1212.59,-251 1219.93,-251"/>
</g>
<!-- sbpr_card_vklad_lsohranyai&#45;&#45;sbpr_card_vklad -->
<g id="edge52" class="edge">
<title>sbpr_card_vklad_lsohranyai&#45;&#45;sbpr_card_vklad</title>
<path fill="none" stroke="black" d="M1010.83,-275.03C1010.83,-294.58 1010.83,-323 1010.83,-323 1010.83,-323 1107.46,-323 1158.79,-323"/>
</g>
<!-- sbpr_card_vklad_lpopolnyai&#45;&#45;sbpr_card_vklad -->
<g id="edge53" class="edge">
<title>sbpr_card_vklad_lpopolnyai&#45;&#45;sbpr_card_vklad</title>
<path fill="none" stroke="black" d="M1187.33,-275.17C1187.33,-286 1187.33,-299.71 1187.33,-310.59"/>
</g>
<!-- sbpr_card_vklad_luprvlyai&#45;&#45;sbpr_card_vklad -->
<g id="edge54" class="edge">
<title>sbpr_card_vklad_luprvlyai&#45;&#45;sbpr_card_vklad</title>
<path fill="none" stroke="black" d="M1219.82,-263C1216.1,-263 1213.83,-263 1213.83,-263 1213.83,-263 1213.83,-291.42 1213.83,-310.97"/>
</g>
<!-- sbpr_vault&#45;&#45;sbpr_theme_choice -->
<g id="edge55" class="edge">
<title>sbpr_vault&#45;&#45;sbpr_theme_choice</title>
<path fill="none" stroke="black" d="M1330,-347.17C1330,-358 1330,-371.71 1330,-382.59"/>
</g>
<!-- sberta_package_choise -->
<g id="sberta_package_choise" class="node">
<title>sberta_package_choise</title>
<polygon fill="none" stroke="black" points="1517.5,-131 1458.5,-131 1458.5,-95 1517.5,-95 1517.5,-131"/>
<text text-anchor="middle" x="1488" y="-109.3" font-family="Times New Roman,serif" font-size="14.00">Сберта</text>
</g>
<!-- sberta_package_choise&#45;&#45;unknown -->
<g id="edge56" class="edge">
<title>sberta_package_choise&#45;&#45;unknown</title>
<path fill="none" stroke="black" d="M1478.17,-94.85C1478.17,-71.24 1478.17,-33 1478.17,-33 1478.17,-33 1387.65,-33 1336.38,-33"/>
</g>
<!-- sberta_package_choise&#45;&#45;unknown -->
<g id="edge57" class="edge">
<title>sberta_package_choise&#45;&#45;unknown</title>
<path fill="none" stroke="black" d="M1497.83,-94.97C1497.83,-70.02 1497.83,-28 1497.83,-28 1497.83,-28 1392.22,-28 1336.11,-28"/>
</g>
<!-- Инвестиции -->
<g id="Инвестиции" class="node">
<title>Инвестиции</title>
<polygon fill="none" stroke="black" points="1962.5,-419 1873.5,-419 1873.5,-383 1962.5,-383 1962.5,-419"/>
<text text-anchor="middle" x="1918" y="-397.3" font-family="Times New Roman,serif" font-size="14.00">Инвестиции</text>
</g>
<!-- Три_шага_до_инвестора -->
<g id="Три_шага_до_инвестора" class="node">
<title>Три_шага_до_инвестора</title>
<polygon fill="none" stroke="black" points="1615.5,-347 1458.5,-347 1458.5,-311 1615.5,-311 1615.5,-347"/>
<text text-anchor="middle" x="1537" y="-325.3" font-family="Times New Roman,serif" font-size="14.00">Три шага до инвестора</text>
</g>
<!-- Инвестиции&#45;&#45;Три_шага_до_инвестора -->
<g id="edge58" class="edge">
<title>Инвестиции&#45;&#45;Три_шага_до_инвестора</title>
<path fill="none" stroke="black" d="M1873.17,-407C1772.46,-407 1537,-407 1537,-407 1537,-407 1537,-370.13 1537,-347.09"/>
</g>
<!-- Риск_профиль -->
<g id="Риск_профиль" class="node">
<title>Риск_профиль</title>
<polygon fill="none" stroke="black" points="1738,-347 1634,-347 1634,-311 1738,-311 1738,-347"/>
<text text-anchor="middle" x="1686" y="-325.3" font-family="Times New Roman,serif" font-size="14.00">Риск Профиль</text>
</g>
<!-- Инвестиции&#45;&#45;Риск_профиль -->
<g id="edge59" class="edge">
<title>Инвестиции&#45;&#45;Риск_профиль</title>
<path fill="none" stroke="black" d="M1873.27,-395C1805.85,-395 1686,-395 1686,-395 1686,-395 1686,-366.58 1686,-347.03"/>
</g>
<!-- Инвестиции_Доходчиво -->
<g id="Инвестиции_Доходчиво" class="node">
<title>Инвестиции_Доходчиво</title>
<polygon fill="none" stroke="black" points="1915.5,-347 1756.5,-347 1756.5,-311 1915.5,-311 1915.5,-347"/>
<text text-anchor="middle" x="1836" y="-325.3" font-family="Times New Roman,serif" font-size="14.00">Инвестиции доходчиво</text>
</g>
<!-- Инвестиции&#45;&#45;Инвестиции_Доходчиво -->
<g id="edge60" class="edge">
<title>Инвестиции&#45;&#45;Инвестиции_Доходчиво</title>
<path fill="none" stroke="black" d="M1894.5,-382.83C1894.5,-372 1894.5,-358.29 1894.5,-347.41"/>
</g>
<!-- Сбербанк_инвестор -->
<g id="Сбербанк_инвестор" class="node">
<title>Сбербанк_инвестор</title>
<polygon fill="none" stroke="black" points="2068,-347 1934,-347 1934,-311 2068,-311 2068,-347"/>
<text text-anchor="middle" x="2001" y="-325.3" font-family="Times New Roman,serif" font-size="14.00">Сбербанк инвестор</text>
</g>
<!-- Инвестиции&#45;&#45;Сбербанк_инвестор -->
<g id="edge62" class="edge">
<title>Инвестиции&#45;&#45;Сбербанк_инвестор</title>
<path fill="none" stroke="black" d="M1941.13,-382.83C1941.13,-372 1941.13,-358.29 1941.13,-347.41"/>
</g>
<!-- Простые_инвестиции -->
<g id="Простые_инвестиции" class="node">
<title>Простые_инвестиции</title>
<polygon fill="none" stroke="black" points="2230,-347 2086,-347 2086,-311 2230,-311 2230,-347"/>
<text text-anchor="middle" x="2158" y="-325.3" font-family="Times New Roman,serif" font-size="14.00">Простые инвестиции</text>
</g>
<!-- Инвестиции&#45;&#45;Простые_инвестиции -->
<g id="edge61" class="edge">
<title>Инвестиции&#45;&#45;Простые_инвестиции</title>
<path fill="none" stroke="black" d="M1948.25,-382.96C1948.25,-370.44 1948.25,-356 1948.25,-356 1948.25,-356 2106.75,-356 2106.75,-356 2106.75,-356 2106.75,-352.04 2106.75,-347.16"/>
</g>
<!-- Управление_активами -->
<g id="node37" class="node">
<title>Управление_активами</title>
<polygon fill="none" stroke="black" points="2399.5,-347 2248.5,-347 2248.5,-311 2399.5,-311 2399.5,-347"/>
<text text-anchor="middle" x="2324" y="-325.3" font-family="Times New Roman,serif" font-size="14.00">Управление_активами</text>
</g>
<!-- Инвестиции&#45;&#45;Управление_активами -->
<g id="edge63" class="edge">
<title>Инвестиции&#45;&#45;Управление_активами</title>
<path fill="none" stroke="black" d="M1955.38,-382.58C1955.38,-373.72 1955.38,-365 1955.38,-365 1955.38,-365 2324,-365 2324,-365 2324,-365 2324,-356.28 2324,-347.42"/>
</g>
<!-- Управление_Активами -->
<g id="Управление_Активами" class="node">
<title>Управление_Активами</title>
<polygon fill="none" stroke="black" points="2127.5,-419 1980.5,-419 1980.5,-383 2127.5,-383 2127.5,-419"/>
<text text-anchor="middle" x="2054" y="-397.3" font-family="Times New Roman,serif" font-size="14.00">Управление активами</text>
</g>
</g>
</svg>
